<?xml version="1.0" standalone="no"?>
<!DOCTYPE svg PUBLIC "-//W3C//DTD SVG 20010904//EN"
 "http://www.w3.org/TR/2001/REC-SVG-20010904/DTD/svg10.dtd">
<svg version="1.0" xmlns="http://www.w3.org/2000/svg"
 width="400.000000pt" height="400.000000pt" viewBox="0 0 400.000000 400.000000"
 preserveAspectRatio="xMidYMid meet">

<g transform="translate(0.000000,400.000000) scale(0.100000,-0.100000)"
fill="#000000" stroke="none">
<path d="M2730 3429 c-213 -24 -403 -154 -673 -459 l-57 -65 -47 55 c-92 106
-239 252 -303 301 -192 145 -404 200 -595 154 -232 -54 -485 -276 -596 -520
-61 -135 -74 -204 -73 -385 0 -254 37 -408 146 -621 185 -362 631 -780 1367
-1282 43 -30 62 -37 101 -37 52 0 63 7 290 169 848 605 1221 1040 1305 1516
55 313 14 554 -129 768 -139 210 -387 384 -572 402 -33 4 -68 8 -79 9 -11 2
-49 -1 -85 -5z m250 -66 c240 -78 470 -312 554 -564 38 -112 49 -207 42 -339
-14 -267 -78 -466 -220 -685 -193 -296 -561 -631 -1152 -1048 -169 -119 -192
-131 -230 -117 -33 13 -243 160 -444 311 -687 516 -991 884 -1081 1309 -31
145 -33 413 -5 510 47 161 126 292 250 415 147 146 302 224 463 233 124 6 197
-9 318 -68 133 -64 260 -171 404 -338 62 -73 117 -132 121 -132 4 0 34 30 65
68 90 104 244 259 306 307 206 161 403 205 609 138z"/>
<path d="M1803 2376 c-28 -24 -28 -24 -31 -170 l-4 -146 -138 0 c-132 0 -140
-1 -167 -24 l-28 -24 -3 -158 c-4 -172 -1 -195 28 -224 18 -18 34 -20 165 -20
l145 0 0 -129 c0 -135 10 -185 40 -201 10 -6 97 -10 193 -10 228 0 217 -10
217 193 l0 147 148 0 c203 0 192 -13 192 227 l0 182 -26 20 c-24 19 -40 21
-170 21 l-144 0 0 149 0 150 -26 20 c-25 19 -40 21 -195 21 -163 0 -169 -1
-196 -24z m364 -24 c9 -6 13 -55 15 -167 l3 -160 162 -5 c89 -3 165 -9 170
-13 12 -13 16 -298 4 -330 l-11 -27 -160 0 c-189 0 -169 22 -173 -190 l-2
-145 -170 -3 c-151 -2 -171 -1 -182 15 -9 12 -13 63 -13 170 l0 153 -160 0
c-147 0 -160 1 -170 19 -5 11 -10 85 -10 170 0 123 3 152 16 165 13 13 43 16
170 16 l154 0 0 151 c0 84 5 159 10 170 10 18 23 19 173 19 89 0 168 -4 174
-8z"/>
</g>
</svg>
